# xmcd CD database file
#
# Track frame offsets:
#	150
#	21344
#	40771
#	60540
#	77372
#	95737
#	110145
#	129701
#	148612
#	171134
#	193026
#	208976
#	230125
#	246137
#	265193
#	284289
#	300883
#	319032
#	339421
#
# Disc length: 4748 seconds
#
# Revision: 1
# Processed by: cddbd v1.5.2PL0 Copyright (c) Steve Scherf et al.
# Submitted via: CDex 1.51
#
DISCID=15128a13
DTITLE=Various Artist - EZH-89
DYEAR=1900
DGENRE=Blues
TTITLE0=LMFAO Ft Lauren Bennett and Goonrock -  Party Rock Anthem
TTITLE1=Jennifer Lopez Ft Pitbull - On The floor
TTITLE2=Katy Perry Ft Kanye West - ET
TTITLE3=Nicole Sherzinger - Don't Hold Your Breath
TTITLE4=Wiz Khalifa - Black And Yellow
TTITLE5=Martin Solveig and Dragonette - Hello
TTITLE6=Chris Brown - Yeah 3x
TTITLE7=Alexis Jordan - Good Girl
TTITLE8=Tracy Chapman - Fast Car
TTITLE9=Adele - Someone Like You (album version)
TTITLE10=Example -  Changed The Way You kissed Me
TTITLE11=Pitbull Ft Nayer Afrojack and Ne-Yo - Give Me Everything
TTITLE12=Alexandra Stan - Mr Saxobeat
TTITLE13=Aloe Blacc - I Need A dollar
TTITLE14=Coldplay - Every Teardrop Is A Waterfall
TTITLE15=Bruno Mars - Lazy Song
TTITLE16=Take That - Love Love
TTITLE17=Rihanna - California King Bed
TTITLE18=Saturdays The - Notorious
EXTD=
EXTT0=
EXTT1=
EXTT2=
EXTT3=
EXTT4=
EXTT5=
EXTT6=
EXTT7=
EXTT8=
EXTT9=
EXTT10=
EXTT11=
EXTT12=
EXTT13=
EXTT14=
EXTT15=
EXTT16=
EXTT17=
EXTT18=
PLAYORDER=
